<svg width="1280" height="980" viewBox="0 0 1280 980" fill="none" xmlns="http://www.w3.org/2000/svg">
  <title>Marketing Hero Scene</title>
  <desc>A custom illustration of a modern marketing workspace with analytics dashboards, reports, and campaign planning tools.</desc>
  <defs>
    <linearGradient id="bg" x1="124" y1="64" x2="1116" y2="900" gradientUnits="userSpaceOnUse">
      <stop stop-color="#F7F2EA"/>
      <stop offset="0.5" stop-color="#EEE5D9"/>
      <stop offset="1" stop-color="#DDD5C7"/>
    </linearGradient>
    <linearGradient id="wall" x1="640" y1="80" x2="640" y2="520" gradientUnits="userSpaceOnUse">
      <stop stop-color="#FAF6F0"/>
      <stop offset="1" stop-color="#E8DFD1"/>
    </linearGradient>
    <linearGradient id="window" x1="860" y1="106" x2="1140" y2="358" gradientUnits="userSpaceOnUse">
      <stop stop-color="#EAF3EF"/>
      <stop offset="1" stop-color="#C6D7CF"/>
    </linearGradient>
    <linearGradient id="desk" x1="210" y1="600" x2="1120" y2="900" gradientUnits="userSpaceOnUse">
      <stop stop-color="#3B322C"/>
      <stop offset="1" stop-color="#221D19"/>
    </linearGradient>
    <linearGradient id="monitor" x1="356" y1="290" x2="686" y2="582" gradientUnits="userSpaceOnUse">
      <stop stop-color="#232A25"/>
      <stop offset="1" stop-color="#181C19"/>
    </linearGradient>
    <linearGradient id="screenGlow" x1="430" y1="322" x2="646" y2="544" gradientUnits="userSpaceOnUse">
      <stop stop-color="#254433"/>
      <stop offset="1" stop-color="#18211C"/>
    </linearGradient>
    <linearGradient id="laptop" x1="692" y1="430" x2="934" y2="690" gradientUnits="userSpaceOnUse">
      <stop stop-color="#2A322D"/>
      <stop offset="1" stop-color="#171C19"/>
    </linearGradient>
    <linearGradient id="paper" x1="874" y1="548" x2="1078" y2="758" gradientUnits="userSpaceOnUse">
      <stop stop-color="#F8F4ED"/>
      <stop offset="1" stop-color="#E9E1D4"/>
    </linearGradient>
    <linearGradient id="plantLeaf" x1="130" y1="430" x2="276" y2="700" gradientUnits="userSpaceOnUse">
      <stop stop-color="#3B7A58"/>
      <stop offset="1" stop-color="#234732"/>
    </linearGradient>
    <linearGradient id="accentGreen" x1="0" y1="0" x2="1" y2="1">
      <stop stop-color="#C4F0D1"/>
      <stop offset="1" stop-color="#5FA378"/>
    </linearGradient>
    <filter id="shadow" x="40" y="20" width="1200" height="940" filterUnits="userSpaceOnUse" color-interpolation-filters="sRGB">
      <feDropShadow dx="0" dy="32" stdDeviation="36" flood-color="#7B6A58" flood-opacity="0.22"/>
    </filter>
    <filter id="soft" x="-40" y="-40" width="1360" height="1060" filterUnits="userSpaceOnUse" color-interpolation-filters="sRGB">
      <feGaussianBlur stdDeviation="12"/>
    </filter>
    <filter id="glass" x="730" y="40" width="450" height="390" filterUnits="userSpaceOnUse" color-interpolation-filters="sRGB">
      <feGaussianBlur stdDeviation="1.5"/>
    </filter>
  </defs>

  <g filter="url(#shadow)">
    <rect x="72" y="46" width="1136" height="888" rx="48" fill="url(#bg)"/>
  </g>

  <g opacity="0.7">
    <circle cx="188" cy="132" r="124" fill="#D9E6DE"/>
    <circle cx="1104" cy="180" r="150" fill="#EFE7DB"/>
  </g>

  <rect x="112" y="96" width="1056" height="438" rx="36" fill="url(#wall)"/>
  <rect x="802" y="106" width="300" height="242" rx="28" fill="url(#window)"/>
  <g filter="url(#glass)" opacity="0.65">
    <rect x="818" y="128" width="264" height="196" rx="22" fill="#F7FBF9"/>
    <path d="M826 272L874 210L920 232L964 176L1012 228L1068 168V310H826V272Z" fill="#C7D8D0"/>
    <rect x="858" y="224" width="22" height="86" rx="11" fill="#9EB4A8"/>
    <rect x="902" y="204" width="18" height="106" rx="9" fill="#B3C5BB"/>
    <rect x="940" y="188" width="24" height="122" rx="12" fill="#8FA89A"/>
    <rect x="988" y="214" width="20" height="96" rx="10" fill="#B4C7BD"/>
    <rect x="1030" y="172" width="30" height="138" rx="15" fill="#90A89C"/>
  </g>

  <path d="M154 702L1116 702L1042 846H228L154 702Z" fill="url(#desk)"/>
  <ellipse cx="642" cy="718" rx="386" ry="54" fill="#4B3F36" opacity="0.24"/>

  <g opacity="0.2">
    <rect x="202" y="148" width="180" height="12" rx="6" fill="#D6CEC2"/>
    <rect x="202" y="176" width="232" height="12" rx="6" fill="#D8D0C5"/>
    <rect x="202" y="204" width="148" height="12" rx="6" fill="#D8D0C5"/>
  </g>

  <g>
    <path d="M170 708C148 610 144 552 172 506C196 468 230 454 270 450C266 486 270 524 288 560C312 610 314 656 292 708H170Z" fill="#2A4B38"/>
    <path d="M224 710C190 620 194 560 228 500C252 458 286 426 328 408C338 448 340 490 326 530C308 584 316 636 344 710H224Z" fill="url(#plantLeaf)"/>
    <path d="M146 708C120 634 120 582 146 540C168 504 202 480 242 466C242 504 236 542 216 582C194 626 192 662 210 708H146Z" fill="#4E8F69"/>
    <rect x="166" y="706" width="126" height="52" rx="20" fill="#D2C2B0"/>
  </g>

  <g>
    <rect x="332" y="244" width="388" height="252" rx="28" fill="#111412"/>
    <rect x="350" y="264" width="352" height="214" rx="22" fill="url(#monitor)"/>
    <rect x="368" y="284" width="316" height="178" rx="18" fill="url(#screenGlow)"/>
    <rect x="472" y="500" width="108" height="20" rx="10" fill="#2B2F2C"/>
    <rect x="442" y="518" width="168" height="18" rx="9" fill="#6C655D"/>
    <path d="M404 392C442 340 500 356 534 312C556 284 606 284 642 322" stroke="url(#accentGreen)" stroke-width="10" stroke-linecap="round"/>
    <path d="M398 420C456 396 492 430 526 404C560 378 612 396 652 362" stroke="#C6D9CD" stroke-opacity="0.75" stroke-width="7" stroke-linecap="round"/>
    <rect x="398" y="314" width="82" height="18" rx="9" fill="#C4F0D1" fill-opacity="0.18"/>
    <rect x="398" y="340" width="136" height="12" rx="6" fill="#F6F1E8" fill-opacity="0.18"/>
    <rect x="398" y="358" width="96" height="12" rx="6" fill="#F6F1E8" fill-opacity="0.12"/>
    <circle cx="620" cy="338" r="38" fill="#23392D"/>
    <circle cx="620" cy="338" r="24" fill="#14211A"/>
    <path d="M620 300A38 38 0 0 1 652 354L620 338V300Z" fill="#B9E8C6"/>
    <rect x="394" y="430" width="68" height="12" rx="6" fill="#F7F2EB" fill-opacity="0.3"/>
    <rect x="394" y="448" width="124" height="8" rx="4" fill="#F7F2EB" fill-opacity="0.16"/>
    <rect x="554" y="420" width="92" height="36" rx="18" fill="#315A43"/>
    <circle cx="582" cy="438" r="10" fill="#B5E8C3"/>
    <rect x="602" y="431" width="28" height="14" rx="7" fill="#EFF7F1" fill-opacity="0.64"/>
  </g>

  <g>
    <path d="M666 682L702 430H934L964 682H666Z" fill="#7C756D"/>
    <rect x="690" y="420" width="264" height="174" rx="24" fill="#0E1110"/>
    <rect x="706" y="438" width="232" height="140" rx="18" fill="url(#laptop)"/>
    <rect x="726" y="456" width="66" height="14" rx="7" fill="#C1EED0" fill-opacity="0.18"/>
    <rect x="726" y="480" width="114" height="10" rx="5" fill="#F8F2E9" fill-opacity="0.18"/>
    <path d="M728 546C760 510 798 556 832 520C860 492 908 502 924 466" stroke="#C4F0D1" stroke-width="8" stroke-linecap="round"/>
    <rect x="726" y="516" width="38" height="12" rx="6" fill="#F7F2EB" fill-opacity="0.14"/>
    <rect x="786" y="516" width="44" height="12" rx="6" fill="#F7F2EB" fill-opacity="0.1"/>
    <rect x="852" y="516" width="60" height="12" rx="6" fill="#F7F2EB" fill-opacity="0.16"/>
    <rect x="724" y="604" width="210" height="24" rx="12" fill="#A69C91"/>
    <g opacity="0.54">
      <rect x="742" y="614" width="56" height="4" rx="2" fill="#655B53"/>
      <rect x="808" y="614" width="56" height="4" rx="2" fill="#655B53"/>
      <rect x="874" y="614" width="42" height="4" rx="2" fill="#655B53"/>
    </g>
  </g>

  <g>
    <rect x="876" y="566" width="212" height="146" rx="24" transform="rotate(-9 876 566)" fill="url(#paper)"/>
    <rect x="900" y="590" width="104" height="12" rx="6" transform="rotate(-9 900 590)" fill="#D8D0C5"/>
    <rect x="900" y="614" width="136" height="10" rx="5" transform="rotate(-9 900 614)" fill="#E0D7CB"/>
    <rect x="920" y="650" width="34" height="74" rx="17" transform="rotate(-9 920 650)" fill="#305740"/>
    <rect x="968" y="626" width="34" height="98" rx="17" transform="rotate(-9 968 626)" fill="#7EC095"/>
    <rect x="1016" y="670" width="34" height="54" rx="17" transform="rotate(-9 1016 670)" fill="#B0DEC0"/>
    <path d="M906 684C942 662 980 678 1006 650C1028 626 1068 634 1078 604" stroke="#222C26" stroke-opacity="0.28" stroke-width="6" stroke-linecap="round"/>
  </g>

  <g>
    <rect x="794" y="694" width="120" height="66" rx="18" fill="#F5EFE5"/>
    <circle cx="828" cy="727" r="14" fill="#D5C9BA"/>
    <rect x="852" y="720" width="42" height="14" rx="7" fill="#D8CDBE"/>
    <rect x="818" y="746" width="70" height="6" rx="3" fill="#E6DDD1"/>
  </g>

  <g>
    <rect x="986" y="678" width="82" height="150" rx="24" fill="#171B18"/>
    <rect x="994" y="690" width="66" height="126" rx="18" fill="#242A26"/>
    <rect x="1002" y="706" width="50" height="8" rx="4" fill="#C4F0D1" fill-opacity="0.2"/>
    <path d="M1006 786C1016 756 1034 754 1042 720" stroke="#B9E8C6" stroke-width="7" stroke-linecap="round"/>
    <circle cx="1026" cy="742" r="8" fill="#A7DAB8"/>
    <circle cx="1038" cy="724" r="8" fill="#D6EEE0"/>
    <circle cx="1016" cy="774" r="8" fill="#7AAE8E"/>
  </g>

  <g opacity="0.42">
    <rect x="362" y="544" width="150" height="24" rx="12" fill="#302924"/>
    <rect x="806" y="290" width="218" height="18" rx="9" fill="#D9CFC2"/>
    <rect x="806" y="320" width="180" height="16" rx="8" fill="#E0D8CD"/>
  </g>

  <g filter="url(#soft)" opacity="0.22">
    <ellipse cx="914" cy="762" rx="214" ry="82" fill="#1F4332"/>
    <ellipse cx="416" cy="804" rx="250" ry="90" fill="#BFAF9E"/>
  </g>

  <rect x="72.5" y="46.5" width="1135" height="887" rx="47.5" stroke="white" stroke-opacity="0.32"/>
</svg>
