<?xml version="1.0" encoding="UTF-8" standalone="no"?>
<svg
   width="509.81314pt"
   height="502.87384pt"
   viewBox="0 0 509.81314 502.87383"
   version="1.1"
   id="svg36"
   xmlns="http://www.w3.org/2000/svg"
   xmlns:svg="http://www.w3.org/2000/svg">
  <defs
     id="defs36" />
  <path
     fill-rule="nonzero"
     fill="#a7a9ac"
     fill-opacity="1"
     d="m 219.79751,451.85882 c 1.16797,0 2.1875,-0.32031 3.05859,-0.95703 0.87109,-0.63672 1.55078,-1.53125 2.03516,-2.68359 0.48437,-1.15625 0.72656,-2.51172 0.72656,-4.07032 0,-1.55859 -0.24219,-2.90625 -0.72656,-4.04687 -0.48438,-1.13672 -1.16407,-2.01953 -2.03516,-2.64063 -0.87109,-0.62109 -1.89062,-0.93359 -3.05859,-0.93359 -1.15235,0 -2.16797,0.3125 -3.04688,0.93359 -0.8789,0.6211 -1.5625,1.50391 -2.04687,2.64063 -0.48438,1.14062 -0.72657,2.48828 -0.72657,4.04687 0,1.5586 0.24219,2.91407 0.72657,4.07032 0.48437,1.15234 1.16797,2.04687 2.04687,2.68359 0.87891,0.63672 1.89453,0.95703 3.04688,0.95703 m 0,0.78516 c -1.30469,0 -2.45703,-0.35156 -3.46875,-1.05469 -1.00782,-0.70703 -1.80078,-1.69531 -2.375,-2.96875 -0.57422,-1.27344 -0.86328,-2.76562 -0.86328,-4.47266 0,-1.72265 0.28906,-3.21093 0.86328,-4.46093 0.57422,-1.25391 1.36718,-2.22266 2.375,-2.91407 1.01172,-0.6875 2.16406,-1.03125 3.46875,-1.03125 1.30468,0 2.46093,0.34375 3.46875,1.03125 1.00781,0.69141 1.80078,1.66016 2.375,2.91407 0.57812,1.25 0.86328,2.73828 0.86328,4.46093 0,1.70704 -0.28516,3.19922 -0.86328,4.47266 -0.57422,1.27344 -1.36719,2.26172 -2.375,2.96875 -1.00782,0.70313 -2.16407,1.05469 -3.46875,1.05469"
     id="path1" />
  <path
     fill-rule="nonzero"
     fill="#a7a9ac"
     fill-opacity="1"
     d="M 232.37173,452.35101 V 436.0346 h 0.88671 l 7.27735,11.89063 1.88672,3.21484 h 0.11328 c -0.043,-0.79687 -0.0781,-1.57031 -0.10156,-2.32812 -0.0234,-0.75782 -0.0352,-1.51953 -0.0352,-2.28125 v -10.4961 h 0.82031 v 16.31641 h -0.91015 l -7.25391,-11.89063 -1.88672,-3.21484 h -0.0937 c 0.0312,0.76563 0.0547,1.50781 0.0703,2.22656 0.0156,0.71875 0.0234,1.46875 0.0234,2.2461 v 10.63281 z m 0,0"
     id="path2" />
  <path
     fill-rule="nonzero"
     fill="#a7a9ac"
     fill-opacity="1"
     d="M 250.15298,452.35101 V 436.0346 h 8.87109 v 0.73828 h -8.02734 v 6.5 h 6.73046 v 0.73829 h -6.73046 v 7.59765 h 8.27734 v 0.74219 z m 0,0"
     id="path3" />
  <path
     fill-rule="nonzero"
     fill="#a7a9ac"
     fill-opacity="1"
     d="m 263.04751,443.49554 h 4.83593 v 1.39453 h -4.83593 z m 0,0"
     id="path4" />
  <path
     fill-rule="nonzero"
     fill="#a7a9ac"
     fill-opacity="1"
     d="m 305.55923,443.49554 h 4.83593 v 1.39453 h -4.83593 z m 0,0"
     id="path5" />
  <path
     fill-rule="nonzero"
     fill="#a7a9ac"
     fill-opacity="1"
     d="m 276.78188,452.35101 v -15.57813 h -5.32031 v -0.73828 h 11.52734 v 0.73828 h -5.32031 v 15.57813 z m 0,0"
     id="path6" />
  <path
     fill-rule="nonzero"
     fill="#a7a9ac"
     fill-opacity="1"
     d="m 293.31313,451.85882 c 1.16406,0 2.1836,-0.32031 3.0586,-0.95703 0.87109,-0.63672 1.54687,-1.53125 2.03515,-2.68359 0.48438,-1.15625 0.72656,-2.51172 0.72656,-4.07032 0,-1.55859 -0.24218,-2.90625 -0.72656,-4.04687 -0.48828,-1.13672 -1.16406,-2.01953 -2.03515,-2.64063 -0.875,-0.62109 -1.89454,-0.93359 -3.0586,-0.93359 -1.15234,0 -2.16797,0.3125 -3.04687,0.93359 -0.87891,0.6211 -1.5625,1.50391 -2.04688,2.64063 -0.48828,1.14062 -0.73047,2.48828 -0.73047,4.04687 0,1.5586 0.24219,2.91407 0.73047,4.07032 0.48438,1.15234 1.16797,2.04687 2.04688,2.68359 0.8789,0.63672 1.89453,0.95703 3.04687,0.95703 m 0,0.78516 c -1.30469,0 -2.46094,-0.35156 -3.46875,-1.05469 -1.00781,-0.70703 -1.80078,-1.69531 -2.375,-2.96875 -0.57812,-1.27344 -0.86719,-2.76562 -0.86719,-4.47266 0,-1.72265 0.28907,-3.21093 0.86719,-4.46093 0.57422,-1.25391 1.36719,-2.22266 2.375,-2.91407 1.00781,-0.6875 2.16406,-1.03125 3.46875,-1.03125 1.30078,0 2.45703,0.34375 3.46485,1.03125 1.01171,0.69141 1.80078,1.66016 2.3789,2.91407 0.57422,1.25 0.86328,2.73828 0.86328,4.46093 0,1.70704 -0.28906,3.19922 -0.86328,4.47266 -0.57812,1.27344 -1.36719,2.26172 -2.3789,2.96875 -1.00782,0.70313 -2.16407,1.05469 -3.46485,1.05469"
     id="path7" />
  <path
     fill-rule="nonzero"
     fill="#a7a9ac"
     fill-opacity="1"
     d="m 320.82485,451.85882 c 1.16797,0 2.1875,-0.32031 3.05859,-0.95703 0.8711,-0.63672 1.55079,-1.53125 2.03516,-2.68359 0.48438,-1.15625 0.72656,-2.51172 0.72656,-4.07032 0,-1.55859 -0.24218,-2.90625 -0.72656,-4.04687 -0.48437,-1.13672 -1.16406,-2.01953 -2.03516,-2.64063 -0.87109,-0.62109 -1.89062,-0.93359 -3.05859,-0.93359 -1.15234,0 -2.16797,0.3125 -3.04687,0.93359 -0.87891,0.6211 -1.5586,1.50391 -2.04688,2.64063 -0.48437,1.14062 -0.72656,2.48828 -0.72656,4.04687 0,1.5586 0.24219,2.91407 0.72656,4.07032 0.48828,1.15234 1.16797,2.04687 2.04688,2.68359 0.8789,0.63672 1.89453,0.95703 3.04687,0.95703 m 0,0.78516 c -1.30469,0 -2.46094,-0.35156 -3.46875,-1.05469 -1.00781,-0.70703 -1.79687,-1.69531 -2.375,-2.96875 -0.57422,-1.27344 -0.86328,-2.76562 -0.86328,-4.47266 0,-1.72265 0.28906,-3.21093 0.86328,-4.46093 0.57813,-1.25391 1.36719,-2.22266 2.375,-2.91407 1.00781,-0.6875 2.16406,-1.03125 3.46875,-1.03125 1.30469,0 2.46094,0.34375 3.46875,1.03125 1.00781,0.69141 1.80078,1.66016 2.375,2.91407 0.57813,1.25 0.86328,2.73828 0.86328,4.46093 0,1.70704 -0.28515,3.19922 -0.86328,4.47266 -0.57422,1.27344 -1.36719,2.26172 -2.375,2.96875 -1.00781,0.70313 -2.16406,1.05469 -3.46875,1.05469"
     id="path8" />
  <path
     fill-rule="nonzero"
     fill="#a7a9ac"
     fill-opacity="1"
     d="M 333.39907,452.35101 V 436.0346 h 0.88672 l 7.27734,11.89063 1.88672,3.21484 h 0.11328 c -0.043,-0.79687 -0.0781,-1.57031 -0.10156,-2.32812 -0.0234,-0.75782 -0.0352,-1.51953 -0.0352,-2.28125 v -10.4961 h 0.82032 v 16.31641 h -0.91016 l -7.25391,-11.89063 -1.88672,-3.21484 h -0.0898 c 0.0312,0.76563 0.0508,1.50781 0.0664,2.22656 0.0156,0.71875 0.0234,1.46875 0.0234,2.2461 v 10.63281 z m 0,0"
     id="path9" />
  <path
     fill-rule="nonzero"
     fill="#a7a9ac"
     fill-opacity="1"
     d="M 351.18032,452.35101 V 436.0346 h 8.87109 v 0.73828 h -8.02734 v 6.5 h 6.73047 v 0.73829 h -6.73047 v 7.59765 h 8.27734 v 0.74219 z m 0,0"
     id="path10" />
  <path
     fill-rule="nonzero"
     fill="#a7a9ac"
     fill-opacity="1"
     d="M 372.87563,452.35101 V 436.0346 h 1.33985 l 3.52343,9.84375 c 0.23047,0.60157 0.45703,1.21094 0.6836,1.83203 0.22656,0.6211 0.45703,1.24219 0.68359,1.85547 h 0.0898 c 0.22657,-0.61328 0.44532,-1.23437 0.66016,-1.85547 0.21094,-0.62109 0.42188,-1.23046 0.63672,-1.83203 l 3.54687,-9.84375 h 1.33985 v 16.31641 h -0.83985 v -11.28125 c 0,-0.4375 0.004,-0.89844 0.0117,-1.38281 0.008,-0.48828 0.0195,-0.98438 0.0352,-1.48438 0.0117,-0.5039 0.0273,-0.96875 0.043,-1.40625 h -0.0899 l -1.27343,3.59766 -3.70703,10.13672 h -0.88672 l -3.73047,-10.13672 -1.29297,-3.59766 h -0.0937 c 0.0312,0.4375 0.0547,0.90235 0.0703,1.40625 0.0156,0.5 0.0234,0.9961 0.0312,1.48438 0.0117,0.48437 0.0117,0.94531 0.0117,1.38281 v 11.28125 z m 0,0"
     id="path11" />
  <path
     fill-rule="nonzero"
     fill="#a7a9ac"
     fill-opacity="1"
     d="m 392.63344,445.83538 h 7.36719 v 0.71875 h -7.36719 z m -2.54687,6.51563 5.89062,-16.31641 h 0.75 l 5.91407,16.31641 h -0.91016 l -3.43359,-9.77734 c -0.35157,-0.98829 -0.67578,-1.92969 -0.98047,-2.82032 -0.30078,-0.89062 -0.60547,-1.84765 -0.90625,-2.86718 h -0.0937 c -0.30078,1.01953 -0.60938,1.97656 -0.91797,2.86718 -0.3125,0.89063 -0.64453,1.83203 -0.99219,2.82032 l -3.47656,9.77734 z m 0,0"
     id="path12" />
  <path
     fill-rule="nonzero"
     fill="#a7a9ac"
     fill-opacity="1"
     d="m 416.50844,452.35101 -4.82031,-7.93359 0.95703,-0.0899 4.84375,8.02344 z m -8.32031,-8.40625 h 3.4336 c 1.51562,0 2.67968,-0.30469 3.49218,-0.91016 0.8086,-0.60547 1.21485,-1.53906 1.21485,-2.79687 0,-1.27344 -0.40625,-2.17188 -1.21485,-2.6875 -0.8125,-0.51563 -1.97656,-0.77735 -3.49218,-0.77735 h -3.4336 z m -0.83984,8.40625 V 436.0346 h 4.57031 c 1.08984,0 2.03516,0.14063 2.82813,0.42578 0.79687,0.28516 1.41015,0.73438 1.84375,1.34766 0.42968,0.61719 0.64843,1.42578 0.64843,2.42969 0,0.95703 -0.21875,1.76562 -0.64843,2.42578 -0.4336,0.66016 -1.04688,1.16016 -1.84375,1.49609 -0.79297,0.33594 -1.73829,0.50391 -2.82813,0.50391 h -3.73047 v 7.6875 z m 0,0"
     id="path13" />
  <path
     fill-rule="nonzero"
     fill="#a7a9ac"
     fill-opacity="1"
     d="M 422.69594,452.35101 V 436.0346 h 0.83985 v 9.34766 h 0.0469 l 8.34375,-9.34766 h 1.07032 l -5.30079,5.97657 6.00391,10.33984 h -1 l -5.64062,-9.6875 -3.52344,3.93359 v 5.75391 z m 0,0"
     id="path14" />
  <path
     fill-rule="nonzero"
     fill="#a7a9ac"
     fill-opacity="1"
     d="M 438.45376,452.35101 V 436.0346 h 8.86718 v 0.73828 h -8.02734 v 6.5 h 6.73047 v 0.73829 h -6.73047 v 7.59765 h 8.27734 v 0.74219 z m 0,0"
     id="path15" />
  <path
     fill-rule="nonzero"
     fill="#a7a9ac"
     fill-opacity="1"
     d="m 456.75844,452.35101 v -15.57813 h -5.32031 v -0.73828 h 11.52735 v 0.73828 h -5.32032 v 15.57813 z m 0,0"
     id="path16" />
  <path
     fill-rule="nonzero"
     fill="#a7a9ac"
     fill-opacity="1"
     d="m 468.17251,436.0346 h 0.83984 v 16.31641 h -0.83984 z m 0,0"
     id="path17" />
  <path
     fill-rule="nonzero"
     fill="#a7a9ac"
     fill-opacity="1"
     d="M 475.97329,452.35101 V 436.0346 h 0.88672 l 7.27343,11.89063 1.88672,3.21484 h 0.11719 c -0.0469,-0.79687 -0.082,-1.57031 -0.10156,-2.32812 -0.0234,-0.75782 -0.0352,-1.51953 -0.0352,-2.28125 v -10.4961 h 0.81641 v 16.31641 h -0.90625 l -7.25781,-11.89063 -1.88672,-3.21484 h -0.0899 c 0.0312,0.76563 0.0547,1.50781 0.0703,2.22656 0.0117,0.71875 0.0195,1.46875 0.0195,2.2461 v 10.63281 z m 0,0"
     id="path18" />
  <path
     fill-rule="nonzero"
     fill="#a7a9ac"
     fill-opacity="1"
     d="m 499.62173,452.64398 c -1.39454,0 -2.61719,-0.35156 -3.66407,-1.05469 -1.04297,-0.70703 -1.85547,-1.69531 -2.43359,-2.96875 -0.57422,-1.27344 -0.86328,-2.76562 -0.86328,-4.47266 0,-1.28906 0.17187,-2.44921 0.51172,-3.48437 0.34375,-1.03516 0.83203,-1.91797 1.46875,-2.65234 0.63672,-0.73438 1.39453,-1.29688 2.27343,-1.6875 0.87891,-0.38672 1.86329,-0.58204 2.95704,-0.58204 1.10546,0 2.01171,0.21094 2.71484,0.62891 0.70703,0.41797 1.26953,0.85547 1.69531,1.30469 l -0.52344,0.5625 c -0.42578,-0.46485 -0.94921,-0.86719 -1.57031,-1.20313 -0.62109,-0.33984 -1.39453,-0.50781 -2.3164,-0.50781 -1.30469,0 -2.42969,0.3125 -3.37891,0.93359 -0.94531,0.6211 -1.67578,1.50391 -2.18359,2.64063 -0.50782,1.14062 -0.76172,2.48828 -0.76172,4.04687 0,1.5586 0.24609,2.91407 0.74218,4.07032 0.48829,1.15234 1.19532,2.04687 2.11329,2.68359 0.91796,0.63672 2.01171,0.95703 3.28515,0.95703 0.78906,0 1.53125,-0.11719 2.23047,-0.34765 0.69531,-0.23438 1.25,-0.55469 1.66016,-0.95704 v -5.35156 h -4.07422 v -0.73828 h 4.96094 v 6.35938 c -0.51954,0.53906 -1.1836,0.97656 -2.00391,1.3164 -0.81641,0.33594 -1.76563,0.50391 -2.83984,0.50391"
     id="path19" />
  <path
     fill-rule="nonzero"
     fill="#bcbec0"
     fill-opacity="1"
     d="M 14.664693,219.25726 C 18.684224,188.64788 28.145162,158.6557 42.84438,131.48382 86.863908,49.554127 180.99673,-3.2974334 274.03188,4.4955366 374.7311,14.112727 465.93032,88.893977 490.84829,187.58538 c 5.85937,22.32422 8.46875,45.7461 8.52734,68.79688 -0.24219,-23.03906 -3.02344,-46.39453 -9.05859,-68.65625 -0.73047,-3.04297 -2.34766,-8.01172 -3.30078,-11.08203 -0.88282,-3.0586 -2.625,-7.88281 -3.80469,-10.91797 C 451.47329,78.405697 366.02407,14.569757 273.89907,5.9838166 212.38735,0.65178655 149.75063,22.233817 102.25454,61.175227 54.168599,100.12054 22.895162,158.08538 14.664693,219.25726"
     id="path20" />
  <path
     fill-rule="nonzero"
     fill="#bcbec0"
     fill-opacity="1"
     d="m 11.37563,254.8471 c -0.558593,115.19141 83.578128,219.91407 196.66797,242.85547 15.74609,3.33203 31.83594,5.0586 47.94922,5.14453 -16.11328,0.0781 -32.23828,-1.48828 -48.05078,-4.66406 C 94.391258,475.71429 9.6334429,370.50335 11.37563,254.8471"
     id="path21" />
  <path
     fill-rule="nonzero"
     fill="#bcbec0"
     fill-opacity="1"
     d="M 24.53188,161.18304 C 92.633438,-13.945873 321.22329,-53.941963 441.67641,91.800227 477.86782,135.30413 500.65688,191.0346 500.73891,247.95648 500.48891,191.06195 477.50844,135.52288 441.27798,92.128347 320.52407,-53.305243 93.918598,-12.543523 24.53188,161.18304"
     id="path22" />
  <path
     fill-rule="nonzero"
     fill="#bcbec0"
     fill-opacity="1"
     d="M 255.99282,502.8471 C 140.61782,504.61663 31.004537,418.31195 7.5748489,304.99945 c -3.367187,-15.97657 -5.042969,-32.30469 -4.964843,-48.61719 0.08594,16.3125 1.921874,32.60156 5.445312,48.51562 C 32.004537,417.80413 141.02798,503.40179 255.99282,502.8471"
     id="path23" />
  <path
     fill-rule="nonzero"
     fill="#bcbec0"
     fill-opacity="1"
     d="m 233.43423,501.83148 c -28.73047,0.58594 -56.92969,-8.08594 -82.97657,-19.61719 C 107.91079,462.9057 69.945948,432.5971 43.340474,394.05023 15.555318,354.4096 1.0123489,305.97992 0.16469294,257.70257 c -0.488281,-11.29687 0.167969,-22.72656 1.19531296,-33.97656 0.792968,-6.14063 1.835937,-14.16016 3.117187,-20.17578 C 22.992818,105.81976 103.46938,25.839287 200.2936,4.9056966 c 11.63672,-2.42578 24.09766,-4.11328005 35.96875,-4.70703005 7.50781,-0.3125 15.1875,-0.23047 22.67578,0.0664 2.48438,0.0625 6.5625,0.1836 9.05469,0.47656 5.06641,0.49610005 13.03516,0.94141005 18.04297,1.83985005 0,0 8.97656,1.28906 8.97656,1.28906 2.85156,0.32031 6.11328,1.23047 8.90625,1.71484 5.37891,0.90235 12.37109,2.78516 17.63672,4.22657 2.32031,0.6367204 6.39844,1.7031204 8.69531,2.5859304 2.59375,0.94141 10.30469,3.30079 12.84375,4.48438 2.92969,1.23047 7.57031,3.01562 10.51563,4.24219 2.77734,1.29297 9.52734,4.53906 12.29297,5.83984 3.00781,1.52344 6.96875,3.875 9.9414,5.44922 3.875,2.03516 9.78516,6.0625 13.51563,8.32031 0.6289,0.41406 1.23437,0.8711 1.85156,1.30469 l 3.69141,2.63281 c 1.88671,1.42188 5.48437,3.77735 7.30468,5.3711 58.46875,45.14062 97.44532,121.496093 101.33985,195.105463 C 499.19204,171.0932 458.93813,94.401787 399.64907,49.667417 c -4.10938,-2.85547 -8.71094,-6.35547 -12.95703,-9 -4.54297,-2.86329 -10.79688,-6.79688 -15.50781,-9.1836 -2.37891,-1.32031 -5.55079,-3.08594 -7.98438,-4.17578 -3.03516,-1.42187 -9.30859,-4.48828 -12.28516,-5.63281 -3.94921,-1.5586 -8.62109,-3.54297 -12.59375,-4.91797 -3.28125,-0.98047 -9.71484,-3.32031 -12.84765,-4.21094 -2.54688,-0.72656 -10.36328,-2.6992204 -13.07031,-3.4570304 -4.15625,-1.0625 -9.01563,-1.77734 -13.23829,-2.73828 -2.71484,-0.59375 -10.43359,-1.67578 -13.35937,-2.06641 -4.98828,-0.82812 -12.8125,-1.38281 -17.93359,-1.80468 -2.51172,-0.21485 -6.41407,-0.47266 -9,-0.46485 -7.44922,-0.28125 -15.0625,-0.3789 -22.52344,-0.0391 -11.76953,0.60156 -24.13281,2.29687 -35.67188,4.71875 C 104.84438,27.499407 24.641256,107.14784 6.2506299,203.89394 c -1.308593,5.97265 -2.300781,13.95312 -3.121093,20.02344 -1.027344,11.16796 -1.707031,22.52734 -1.230469,33.74218 0.824219,47.97266 15.0195311,96.15625 42.5039061,135.65625 26.375004,38.47657 64.066406,68.81641 106.292966,88.3711 25.9375,11.69922 54.03125,20.53515 82.73829,20.14453"
     id="path24" />
  <path
     fill-rule="nonzero"
     fill="#808285"
     fill-opacity="1"
     d="m 147.68423,340.86273 c -9.10547,0 -15.46485,5.90625 -15.46485,14.35937 0,8.40625 6.35938,14.27735 15.46485,14.27735 9.10937,0 15.46875,-5.8711 15.46875,-14.27735 0,-8.45312 -6.35938,-14.35937 -15.46875,-14.35937 m -24.05469,49.5664 c -2.83985,0 -7.17969,-2.0664 -7.36328,-2.15625 l -0.24219,-0.11328 0.96875,-1.07031 0.13672,0.23047 c 0.0234,0 1.23437,0.73437 13.55859,0.73437 h 16.08594 l -0.0664,-16.79296 c -9.8789,-0.74219 -16.5039,-7.16797 -16.5039,-16.04297 0,-9.60547 7.02343,-16.0586 17.48047,-16.0586 10.45703,0 17.48437,6.45313 17.48437,16.0586 0,8.71093 -6.76562,15.28515 -16.47266,16.04297 v 16.79296 h 17.6875 c 1.48829,0 3.30079,-0.47656 4.90625,-0.89062 1.17579,-0.30859 2.19141,-0.57422 2.81641,-0.57422 3.15625,0 4.95313,0.30078 5.33984,0.89844 0.39454,0.57031 0.39844,1.42969 0,2.08203 l -0.0547,0.0937 h -48.70313 c -1.49219,0 -2.75,0.21484 -3.96484,0.41797 -1.0625,0.17969 -2.0625,0.34765 -3.09375,0.34765"
     id="path25" />
  <path
     fill-rule="nonzero"
     fill="#808285"
     fill-opacity="1"
     d="m 187.47329,401.38617 c 7.05078,-2.7461 19.45703,-11.69922 24.28906,-18.69532 0.57813,-0.85156 1.10547,-2.3789 0.89453,-2.59765 -0.43359,-0.44532 -3.61719,-3.35157 -4.07422,-3.75391 l -0.39453,-0.35156 h 0.52735 c 0.48437,0 5.69921,2.11719 6.5039,2.72265 0.33985,0.23438 0.57813,0.66016 0.67969,1.22266 0.17578,0.96484 -0.0898,2.125 -0.67188,2.96094 -0.69531,0.93359 -1.47265,1.88281 -2.22265,2.78515 l 10.57422,5.53907 c 0.66406,0.36718 1.25781,0.66797 1.85156,0.96875 1.3125,0.66797 2.67578,1.35547 4.76953,2.74609 2.39453,1.60156 5.05078,3.56641 5.58203,4.35156 0.19922,0.26172 0.27344,0.53125 0.21485,0.80078 -0.0859,0.41016 -0.46094,0.77735 -1.21875,1.19532 l -0.10547,0.0625 -0.10157,-0.0703 c -7.6914,-5.11718 -16.10937,-10.23437 -23.11328,-14.04687 -6.13281,6.34766 -17.39843,13.85156 -23.89062,14.54687 z m 0,0"
     id="path26" />
  <path
     fill-rule="nonzero"
     fill="#808285"
     fill-opacity="1"
     d="m 188.88344,372.80023 c -1.26953,0 -6.58593,-1.15625 -8.39843,-1.90625 l -0.12891,-0.0547 0.004,-0.13672 c 0.0273,-0.91015 0.1914,-1.375 0.48437,-1.375 0.21485,0 0.72656,0.0664 1.4336,0.16016 2.16015,0.28515 6.64062,0.875 12.85156,0.875 h 16.17969 l -0.0156,-0.3125 c -0.0703,-1.32813 -0.0703,-3.36328 -0.0703,-4.57813 v -5.33593 h -13.1681 c -3.63281,0 -4.45703,-2.33985 -4.50781,-4.30079 l -0.0742,-6.07031 c 0,-1.5 -2.44922,-2.0664 -3.3711,-2.28125 l -0.0977,-0.0234 -0.16797,-0.0547 0.0352,-0.17188 c 0.0586,-0.30078 0.17968,-0.71094 0.30859,-0.89844 l 0.0625,-0.0898 h 0.10547 c 0.34765,0.008 1.10937,0.0898 1.84375,0.17188 0.40234,0.0469 0.80078,0.0898 1.10937,0.11718 1.07422,0.0977 2.1836,0.20313 2.96094,0.20313 h 30.23047 l 0.61719,-9.19141 h -24.90625 c -1.30078,0 -2.44922,0.125 -3.3711,0.22656 -0.70703,0.0781 -1.30078,0.14063 -1.79687,0.14063 -1.19141,0 -3.79297,-0.65625 -5.80078,-1.46875 l -0.14063,-0.0547 0.0195,-0.15625 c 0.0508,-0.40234 0.17578,-0.78906 0.27344,-0.99219 l 0.0664,-0.13281 0.14453,0.0234 c 3.32812,0.5 7.0625,0.56641 10.60547,0.56641 h 20.13281 c 0.71875,0 1.59375,-0.125 2.29297,-0.22657 0.51172,-0.0742 0.97265,-0.14062 1.22265,-0.14062 0.75782,0 2.45313,0.13281 3.34766,0.21875 0.51563,0.0664 0.80469,0.39062 0.80469,0.88672 -0.0234,0.42968 -1.20313,8.76172 -1.42969,10.01953 l -0.0586,0.32422 0.32812,0.0273 c 0.86328,0.0781 1.30469,0.34766 1.30469,0.8125 0,0.53125 -0.24219,0.88672 -1.42578,0.88672 h -32.76172 v 6.81641 c 0,1.99609 0.80078,2.96875 2.45312,2.96875 h 22.5586 c 1.70703,0 3.53906,-0.20704 5.01562,-0.375 1.03907,-0.11719 1.9375,-0.21875 2.51953,-0.21875 2.30469,0 3.84375,0.0391 4.29688,0.5625 0.23047,0.28906 0.38281,1.04296 -0.0156,1.76953 l -0.0547,0.10547 h -19.16797 v 4.8164 c 0,0.9961 -0.14453,3.52344 -0.35547,5.07031 l -0.0508,0.33985 h 17.68359 c 2.83985,0 4.16797,-0.44141 5.33985,-0.83594 0.86328,-0.28906 1.60937,-0.53906 2.76562,-0.53906 3.98047,0 4.82422,3.01172 4.83203,3.04297 l 0.0664,0.2539 h -48.71875 c -0.96485,0 -2.75781,0.1836 -4.20313,0.33203 l -0.10937,0.0117 c -0.89453,0.0937 -1.66797,0.17188 -1.9336,0.17188"
     id="path27" />
  <path
     fill-rule="nonzero"
     fill="#808285"
     fill-opacity="1"
     d="m 296.01626,401.77288 -0.0234,-0.17578 c -0.22266,-1.78906 -0.22266,-6.03515 -0.22266,-8.57031 v -57.16797 c 0,-0.85937 -0.22656,-1.30078 -0.87109,-1.67969 l -4.40625,-2.38281 0.0508,-0.15625 c 0.11719,-0.3789 0.39844,-0.86328 0.60156,-1.03515 l 0.0625,-0.0547 0.082,0.008 c 0.94532,0.082 5.20704,1.42578 6.44922,1.98438 0.73828,0.34765 0.83985,0.48828 0.83985,1.14843 0,0.2461 -0.043,0.61328 -0.0859,1.01172 -0.0664,0.6211 -0.13281,1.21485 -0.13281,1.67578 l -0.14453,54.85547 c 0,3.65235 -0.3086,8.53906 -0.875,10.39453 l -0.0469,0.14453 z m 0,0"
     id="path28" />
  <path
     fill-rule="nonzero"
     fill="#808285"
     fill-opacity="1"
     d="m 373.75844,401.76898 -0.0234,-0.17578 c -0.21875,-1.78516 -0.21875,-6.03125 -0.21875,-8.56641 v -57.16797 c 0,-0.85937 -0.23047,-1.30078 -0.875,-1.67969 l -4.40625,-2.38281 0.0469,-0.15625 c 0.11719,-0.37109 0.39453,-0.85156 0.60156,-1.03515 l 0.0664,-0.0547 0.082,0.008 c 0.96485,0.0859 5.22656,1.42578 6.45703,1.98828 0.72657,0.33594 0.83594,0.48438 0.83594,1.14063 0,0.23828 -0.0391,0.58593 -0.0859,0.96875 l -0.0469,0.45312 c -0.0391,0.4375 -0.0859,0.89453 -0.0859,1.26953 l -0.0703,26.07032 h 2.32031 c 1.72656,0 3.57422,-0.26172 5.05859,-0.46875 1.00782,-0.14454 1.95704,-0.27344 2.53907,-0.27344 1.89843,0 3.96484,0.0586 4.46484,0.76562 0.33203,0.44141 0.32813,1.13672 0.17578,1.625 l -0.043,0.14063 h -14.52734 l -0.0703,27 c 0,3.64844 -0.30078,8.52734 -0.86719,10.38672 l -0.043,0.14453 z m 0,0"
     id="path29" />
  <path
     fill-rule="nonzero"
     fill="#808285"
     fill-opacity="1"
     d="m 445.24673,401.76898 -0.0195,-0.17578 c -0.22265,-1.78516 -0.22265,-6.03125 -0.22265,-8.56641 v -57.16797 c 0,-0.85937 -0.22656,-1.30078 -0.8711,-1.67969 l -4.40625,-2.38281 0.0469,-0.15625 c 0.11328,-0.37109 0.39062,-0.85156 0.59766,-1.03515 l 0.0664,-0.0547 0.082,0.008 c 0.96875,0.0859 5.22657,1.42578 6.45703,1.98828 0.72657,0.33594 0.83594,0.48438 0.83594,1.14063 0,0.23437 -0.0391,0.58593 -0.082,0.96875 l -0.0469,0.45312 c -0.043,0.4375 -0.0899,0.89453 -0.0899,1.26953 l -0.0703,26.26953 -0.008,1.39063 -0.0703,27.19922 c 0,3.64844 -0.30468,8.52734 -0.87109,10.38672 l -0.043,0.14453 z m 0,0"
     id="path30" />
  <path
     fill-rule="nonzero"
     fill="#808285"
     fill-opacity="1"
     d="m 264.77016,346.66351 c -8.0039,0 -13.59375,6.01562 -13.59375,14.63281 0,8.5625 5.58985,14.54688 13.59375,14.54688 8.00782,0 13.59766,-5.98438 13.59766,-14.54688 0,-8.61719 -5.58984,-14.63281 -13.59766,-14.63281 m 0,31.44922 c -9.46484,0 -16.07422,-6.91797 -16.07422,-16.81641 0,-10.0625 6.45704,-16.82031 16.07422,-16.82031 9.61719,0 16.08203,6.75781 16.08203,16.82031 0,9.89844 -6.61328,16.81641 -16.08203,16.81641"
     id="path31" />
  <path
     fill-rule="nonzero"
     fill="#808285"
     fill-opacity="1"
     d="m 494.12563,377.26898 c -7.66797,0 -13.02344,4.66797 -13.02344,11.35156 0,6.64844 5.35547,11.28906 13.02344,11.28906 7.67188,0 13.03125,-4.64062 13.03125,-11.28906 0,-6.68359 -5.35937,-11.35156 -13.03125,-11.35156 m 0,24.5 c -9.07812,0 -15.41797,-5.40625 -15.41797,-13.14844 0,-7.85937 6.19532,-13.14062 15.41797,-13.14062 9.22656,0 15.42969,5.28125 15.42969,13.14062 0,7.74219 -6.34766,13.14844 -15.42969,13.14844"
     id="path32" />
  <path
     fill-rule="nonzero"
     fill="#808285"
     fill-opacity="1"
     d="m 356.02016,375.88226 0.82032,-29.08984 h -23.14844 l 0.8164,29.08984 z m -23.30468,5.20703 -0.0352,-0.15625 c -0.28125,-1.22266 -0.48828,-3.60547 -0.55469,-6.37109 l -1.08203,-26.8125 c -0.0977,-1.04297 -1.34375,-1.22657 -2.78906,-1.4375 -0.30078,-0.043 -0.60547,-0.0899 -0.90625,-0.14063 l -0.19531,-0.0351 0.0351,-0.19532 c 0.082,-0.48047 0.20703,-0.70312 0.3086,-0.8789 l 0.10937,-0.20703 0.12109,0.004 c 0.81641,0.008 1.85938,0.0899 2.94532,0.17969 l 0.27734,0.0195 c 1.09766,0.082 2.23047,0.16797 3.125,0.16797 h 19.48052 c 0.76953,0 1.42969,-0.13672 1.91016,-0.23438 0.3789,-0.0742 0.68359,-0.13281 0.91796,-0.13281 0.5,0 1.78125,0.0703 2.5586,0.21094 0.40625,0.0664 0.86719,0.29297 0.76172,1.47656 l -1.44922,25.46094 -0.31641,3.65625 0.84375,0.16406 c 0.41016,0.0703 1.27344,0.21875 1.71875,0.32031 l 0.15235,0.0352 v 0.16016 c 0,0.24609 -0.0234,0.35156 -0.0742,0.58984 l -0.0742,0.32422 h -26.19531 l -0.0234,0.27734 c -0.082,0.95703 -0.24219,2.76563 -0.44141,3.41016 l -0.043,0.14453 z m 0,0"
     id="path33" />
  <path
     fill-rule="nonzero"
     fill="#808285"
     fill-opacity="1"
     d="m 394.4186,386.25726 c -0.51562,-0.30469 -0.6875,-0.49609 -0.74609,-0.83203 l -0.0195,-0.1211 0.0937,-0.0742 c 8.67187,-6.56641 12.5,-9.78907 20.17578,-23.83594 l 0.19922,-0.46485 c -13.625,1.78125 -13.625,1.78125 -13.64063,1.78125 -0.0742,0 -0.5,0.0859 -0.92578,0.17579 -0.75,0.15234 -1.28125,0.25781 -1.44922,0.25781 -1.16406,0 -3.69141,-0.60547 -4.86719,-1.07813 l -0.13281,-0.0547 0.008,-0.14454 c 0.0195,-0.29687 0.0586,-0.60937 0.10938,-0.82031 l 0.0351,-0.16015 1.17969,0.0351 c 1.10547,0.0391 2.64453,0.0899 3.77735,0.0899 0.66406,0 1.10937,-0.0195 1.35546,-0.0547 l 15.25,-1.87891 0.0664,-0.16797 c 0.35156,-0.88281 0.77734,-1.84765 1.23047,-2.87109 1.23437,-2.79297 2.63281,-5.96094 3.26172,-9.14453 l 0.0703,-0.34766 -15.68359,0.58594 c -0.26953,0 -0.67578,0.0781 -1.10547,0.16016 -0.51953,0.0976 -1.10938,0.20703 -1.52344,0.20703 -0.81641,0 -3.49219,-0.83985 -4.82031,-1.44141 l -0.125,-0.0547 0.004,-0.13672 c 0.0274,-0.57812 0.11329,-0.875 0.16016,-1 l 0.0586,-0.14453 0.15235,0.0195 c 1.5625,0.20313 4.80078,0.5 6.5625,0.5 l 12.98437,-0.59375 c 0.42969,0 1.14063,-0.125 1.89844,-0.26171 0.73047,-0.12891 1.44531,-0.25391 1.8125,-0.25391 0.32422,0 1.08984,0.18359 1.62109,0.35156 0.21485,0.0586 0.41797,0.12891 0.41797,0.375 0,0.36719 -0.0742,0.67578 -0.17968,1.10156 0,0 -0.1211,0.52735 -0.15625,0.67579 -4.44922,17.21484 -13.2461,30.17187 -26.89454,39.60937 l -0.10546,0.0742 z m 0,0"
     id="path34" />
  <path
     fill-rule="nonzero"
     fill="#808285"
     fill-opacity="1"
     d="m 432.22719,398.28851 -0.0195,-0.17578 c -0.22265,-1.78125 -0.22265,-6.02735 -0.22265,-8.56641 v -25.46484 l -6.6875,0.0977 c -0.5586,0 -1.22266,0.0703 -1.8125,0.13672 -0.48828,0.0547 -0.91016,0.10157 -1.21094,0.10157 -1.0625,0 -3.36328,-0.52735 -4.15234,-0.80079 l -0.13672,-0.0469 v -0.14453 c 0,-0.52344 0.20703,-0.87891 0.51953,-0.87891 0.082,0 0.19922,0.0195 0.3789,0.0469 0.53516,0.0859 1.64063,0.26562 4.10157,0.26562 h 0.57812 l 8.42188,-0.27344 v -22.76953 c 0,-0.85547 -0.22657,-1.29687 -0.8711,-1.67578 l -4.40625,-2.38672 0.0469,-0.15625 c 0.11328,-0.36718 0.39062,-0.84765 0.59765,-1.03125 l 0.0664,-0.0547 0.082,0.004 c 0.96485,0.0859 5.22656,1.42969 6.45703,1.99219 0.72657,0.33594 0.83594,0.48437 0.83594,1.14062 0,0.2461 -0.043,0.61719 -0.0898,1.02344 l -0.0391,0.38281 c -0.043,0.44141 -0.0898,0.90625 -0.0898,1.28125 l -0.0703,26.27344 -0.008,1.39063 -0.0703,19.75781 c 0,3.64844 -0.30468,8.52734 -0.87109,10.38672 l -0.043,0.14453 z m 0,0"
     id="path35" />
  <path
     fill-rule="nonzero"
     fill="#808285"
     fill-opacity="1"
     d="m 507.24673,375.30413 -0.0195,-0.17578 c -0.22265,-1.78125 -0.22265,-6.02734 -0.22265,-8.5625 v -4.73047 c -2.73828,1.42579 -9.16016,4.49219 -15.63672,5.67579 -2.10547,0.38671 -4.35547,0.75781 -6.6875,1.10546 l -0.44531,0.0664 c -2.42188,0.36328 -4.90235,0.61719 -7.30078,0.86328 l -0.69532,0.0703 c -2.07812,0.21485 -4.23828,0.33594 -6.59375,0.36329 l -0.30468,0.004 c -0.88672,0 -2.05469,-0.0469 -3.1836,-0.41015 -1.5,-0.47657 -2.10547,-1.21094 -2.39844,-2.90625 -0.15234,-0.86329 -0.16406,-1.75782 -0.16796,-2.52735 v -17.11328 c 0,-0.37109 -0.0312,-1.07422 -0.0703,-1.79297 -0.0351,-0.77344 -0.0742,-1.5664 -0.0742,-2.0039 0,-1.53516 -1.89062,-2.07813 -3.71875,-2.60157 -0.40234,-0.11718 -0.80078,-0.23047 -1.17968,-0.35547 l -0.10938,-0.0351 -0.0234,-0.10938 c -0.0351,-0.14843 0.0117,-0.30078 0.1211,-0.41797 0.17187,-0.18359 0.38281,-0.30468 0.65234,-0.36328 0.58985,-0.125 1.16406,-0.18359 1.75781,-0.18359 0.73047,0 1.50391,0.0898 2.29297,0.26953 1.7461,0.39063 3.78516,0.79297 5.70703,0.79297 0.23438,0 0.46094,-0.008 0.69141,-0.0195 l 9.26563,0.004 c 2.9375,0 4.60156,-0.36328 6.0664,-0.6875 1.08985,-0.23828 2.02344,-0.4414 3.24219,-0.4414 1.97266,0 4.10547,0.5625 4.10547,1.47656 0,0.42188 -0.0937,0.71875 -0.5586,0.87891 -0.46484,0.16015 -0.95703,0.19922 -1.47656,0.23828 l -0.21875,0.0156 c -0.70312,0.0547 -1.4414,0.082 -2.40625,0.082 -0.39062,0 -1.36719,-0.0117 -1.36719,-0.0117 -0.45703,-0.008 -0.91796,-0.0117 -1.375,-0.0117 -3.02343,0.004 -5.95703,0.008 -8.89062,0.008 -3.25391,0 -9.16016,-0.008 -9.16016,-0.008 -0.17578,0 -0.375,0.0195 -0.52343,0.16797 -0.14844,0.14843 -0.16797,0.35937 -0.16407,0.50781 0.004,2.58594 0.004,5.17187 0.004,7.75781 l -0.004,2.48828 c 0,0.60156 0.14063,0.74219 0.75,0.74219 l 11.57422,0.0117 c 4.02344,0 5.44141,-0.28516 6.94141,-0.58594 0.76172,-0.15625 1.54687,-0.3125 2.69922,-0.43359 h 0.1875 c 0.28515,0 0.53906,-0.0117 0.77343,-0.0195 0.20313,-0.008 0.39454,-0.0195 0.57813,-0.0195 0.58594,0 1.11328,0.082 1.80859,0.46485 0.4336,0.32812 0.5586,0.74219 0.42578,1.3125 -0.0703,0.28125 -0.23828,0.66015 -0.9375,0.75 -0.30078,0.0391 -0.66015,0.0781 -1.01953,0.0781 h -17.30859 c -2.66016,0 -5.75391,-0.008 -5.75391,-0.008 -0.19531,0 -0.39843,0.0195 -0.55078,0.17188 -0.15234,0.14843 -0.16797,0.35546 -0.16797,0.51953 0.008,2.14453 0,4.65625 -0.004,6.82422 l -0.004,1.98828 c 0,0.47656 0.0547,0.9375 0.16406,1.37109 0.3086,1.23047 1.27735,1.96094 2.66407,1.99219 0.76171,0.0195 1.52343,0.0312 2.28906,0.0312 1.67578,0 3.13672,-0.0625 4.47656,-0.19141 0.59375,-0.0586 1.19141,-0.0937 1.78906,-0.13281 0.66016,-0.0391 1.2461,-0.0742 1.82813,-0.12891 0.89844,-0.082 1.79687,-0.17968 2.69531,-0.27734 0.59375,-0.0664 1.19531,-0.12891 1.78906,-0.19141 2.03125,-0.19922 4.0625,-0.51562 6.02735,-0.82422 5.46093,-0.83203 14.32031,-4.25781 17.11328,-5.375 v -24.88281 c 0,-0.85937 -0.22656,-1.30078 -0.8711,-1.67969 l -4.40625,-2.38281 0.0469,-0.15625 c 0.10937,-0.36719 0.39062,-0.85156 0.59766,-1.03515 l 0.0664,-0.0547 0.0859,0.008 c 0.96484,0.0859 5.22656,1.42578 6.45312,1.98828 0.72657,0.33594 0.83594,0.48438 0.83594,1.14063 0,0.24218 -0.0391,0.60156 -0.0859,0.99609 l -0.043,0.42578 c -0.043,0.4375 -0.0899,0.89453 -0.0899,1.26953 l -0.0703,26.26953 -0.008,1.39063 -0.0742,0.75391 c 0.004,3.6289 -0.30078,8.51171 -0.86719,10.37109 l -0.043,0.14062 z m 0,0"
     id="path36" />
</svg>
